<svg xmlns="http://www.w3.org/2000/svg" xmlns:xlink="http://www.w3.org/1999/xlink" width="500" zoomAndPan="magnify" viewBox="0 0 375 374.999991" height="500" preserveAspectRatio="xMidYMid meet" version="1.0"><defs><clipPath id="5bc778a51f"><path d="M 10.703125 62.636719 L 164 62.636719 L 164 237 L 10.703125 237 Z M 10.703125 62.636719 " clip-rule="nonzero"/></clipPath><clipPath id="dcc5d4443d"><path d="M 77 205 L 164 205 L 164 312.386719 L 77 312.386719 Z M 77 205 " clip-rule="nonzero"/></clipPath><clipPath id="2e71dd7bc9"><path d="M 211 138 L 363.953125 138 L 363.953125 312.386719 L 211 312.386719 Z M 211 138 " clip-rule="nonzero"/></clipPath><clipPath id="e413a8fa5a"><path d="M 211 62.636719 L 298 62.636719 L 298 170 L 211 170 Z M 211 62.636719 " clip-rule="nonzero"/></clipPath></defs><g clip-path="url(#5bc778a51f)"><path fill="#ff0000" d="M 10.703125 187.492188 L 163.429688 62.761719 L 163.429688 146.488281 L 100.28125 198.066406 L 79.484375 215.050781 C 73.824219 219.667969 70.582031 226.507812 70.582031 233.8125 C 70.582031 234.722656 70.632812 235.625 70.730469 236.515625 Z M 10.703125 187.492188 " fill-opacity="1" fill-rule="nonzero"/></g><g clip-path="url(#dcc5d4443d)"><path fill="#db0000" d="M 83.851562 247.230469 C 79.804688 243.925781 77.488281 239.035156 77.488281 233.8125 C 77.488281 228.589844 79.804688 223.699219 83.851562 220.398438 L 102.464844 205.199219 L 163.429688 254.992188 L 163.429688 312.222656 Z M 83.851562 247.230469 " fill-opacity="1" fill-rule="nonzero"/></g><g clip-path="url(#2e71dd7bc9)"><path fill="#009bff" d="M 211.578125 228.496094 L 274.726562 176.917969 L 295.523438 159.933594 C 301.179688 155.316406 304.425781 148.476562 304.425781 141.171875 C 304.425781 140.261719 304.375 139.359375 304.277344 138.46875 L 364.304688 187.492188 L 211.578125 312.222656 Z M 211.578125 228.496094 " fill-opacity="1" fill-rule="nonzero"/></g><g clip-path="url(#e413a8fa5a)"><path fill="#3a51d6" d="M 211.578125 119.992188 L 211.578125 62.761719 L 291.15625 127.753906 C 295.199219 131.058594 297.519531 135.949219 297.519531 141.171875 C 297.519531 146.394531 295.199219 151.285156 291.15625 154.585938 L 272.542969 169.785156 Z M 211.578125 119.992188 " fill-opacity="1" fill-rule="nonzero"/></g></svg>